<?xml version="1.0" standalone="no"?>
<!DOCTYPE svg PUBLIC "-//W3C//DTD SVG 20010904//EN"
 "http://www.w3.org/TR/2001/REC-SVG-20010904/DTD/svg10.dtd">
<svg version="1.0" xmlns="http://www.w3.org/2000/svg"
 width="260.000000pt" height="260.000000pt" viewBox="0 0 260.000000 260.000000"
 preserveAspectRatio="xMidYMid meet">
<metadata>
Created by potrace 1.14, written by Peter Selinger 2001-2017
</metadata>
<g transform="translate(0.000000,260.000000) scale(0.100000,-0.100000)"
fill="#000000" stroke="none">
<path d="M1150 2563 c-81 -12 -229 -47 -287 -69 -592 -223 -919 -806 -809
-1440 24 -132 99 -312 192 -455 37 -57 61 -87 154 -188 8 -9 42 -39 75 -68
168 -142 363 -236 580 -280 113 -23 373 -23 482 0 305 65 556 218 745 453 141
176 239 401 265 611 15 115 8 370 -12 425 -2 7 -6 24 -9 38 -15 94 -75 244
-143 358 -121 207 -299 373 -516 482 -195 99 -370 140 -587 138 -58 -1 -116
-3 -130 -5z"/>
</g>
</svg>
